<?xml version="1.0" encoding="UTF-8" standalone="no"?>
<svg
   xml:space="preserve"
   id="svg1"
   version="1.1"
   viewBox="30.254237 66.528 150 150"
   width="150"
   height="150"
   sodipodi:docname="DriftwoodLogo-cropped-white.svg"
   inkscape:version="1.4 (e7c3feb100, 2024-10-09)"
   xmlns:inkscape="http://www.inkscape.org/namespaces/inkscape"
   xmlns:sodipodi="http://sodipodi.sourceforge.net/DTD/sodipodi-0.dtd"
   xmlns="http://www.w3.org/2000/svg"
   xmlns:svg="http://www.w3.org/2000/svg"><sodipodi:namedview
     id="namedview1"
     pagecolor="#505050"
     bordercolor="#eeeeee"
     borderopacity="1"
     inkscape:showpageshadow="0"
     inkscape:pageopacity="0"
     inkscape:pagecheckerboard="0"
     inkscape:deskcolor="#505050"
     inkscape:zoom="5.4932034"
     inkscape:cx="73.727472"
     inkscape:cy="81.282262"
     inkscape:window-width="1920"
     inkscape:window-height="1134"
     inkscape:window-x="0"
     inkscape:window-y="0"
     inkscape:window-maximized="1"
     inkscape:current-layer="svg1" /><defs
     id="defs1"><clipPath
       id="clipPath5"
       clipPathUnits="userSpaceOnUse"><path
         d="m 104.99979,75.616573 v 84.138537 c 23.23439,2.1e-4 42.06971,-18.83488 42.06979,-42.06927 -8e-5,-23.234386 -18.8354,-42.069476 -42.06979,-42.069267 z m 138.1605,0 v 84.138537 c -23.23439,2.1e-4 -42.06971,-18.83488 -42.06979,-42.06927 8e-5,-23.234386 18.8354,-42.069476 42.06979,-42.069267 z m 0,0 v 84.138537 c -23.23439,2.1e-4 -42.06971,-18.83488 -42.06979,-42.06927 8e-5,-23.234386 18.8354,-42.069476 42.06979,-42.069267 z m -138.1605,0 v 84.138537 c 23.23439,2.1e-4 42.06971,-18.83488 42.06979,-42.06927 -8e-5,-23.234386 -18.8354,-42.069476 -42.06979,-42.069267 z"
         style="fill:#ff0000;stroke-width:0.264583"
         id="path6"
         data-darkreader-inline-fill="" /></clipPath></defs><path
     id="path4"
     style="display:inline;fill:#ffffff;stroke:none;stroke-width:0.264583;fill-opacity:1"
     d="M 105 75.615979 A 42.069412 42.069412 0 0 1 129.69141 83.696057 C 127.23904 84.704635 121.20957 87.45308 119.04102 91.035901 C 116.31515 95.539516 114.58572 104.92211 116.19531 109.28785 C 117.23247 112.10099 112.9965 119.12472 111.21875 120.78395 C 110.67447 121.29195 108.81725 124.37844 114.93164 126.18824 C 115.9376 126.48599 115.45534 127.85275 115.10742 128.62184 C 114.75949 129.39094 114.54622 129.56087 114.91406 130.52614 C 115.11739 131.12159 115.95658 131.18024 116.6875 131.49293 C 117.82388 131.97908 115.40265 131.86583 115.27148 132.88942 C 115.08844 134.31784 117.11221 135.02534 117.52148 135.20387 C 120.05289 136.30813 116.56365 137.44843 118.13867 141.27223 C 118.5688 142.31651 121.34699 143.31848 124.50391 143.76051 C 125.01207 143.53467 125.52096 143.3094 126.03516 143.0652 C 133.22846 139.64894 136.90986 133.4594 138.93164 128.58668 C 144.12442 116.07154 133.82474 105.23658 145.90039 93.727307 C 154.47737 85.552605 168.52286 88.545308 173.10938 102.44606 C 174.36707 106.25785 157.04958 87.537643 151.66992 99.971448 C 149.54196 104.88973 156.87818 116.65158 152.29492 132.5066 C 150.46758 138.82797 138.47631 153.4125 117.79492 163.68434 C 110.3906 167.36185 113.598 180.61079 114.42969 192.3816 C 115.26896 204.25963 115.24356 211.69673 139.19141 214.08864 L 139.19141 215.28785 L 105 214.87184 L 70.808594 215.28785 L 70.808594 214.08864 C 94.756444 211.69673 94.731043 204.25963 95.570313 192.3816 C 96.402003 180.61079 99.609398 167.36185 92.205078 163.68434 C 71.523688 153.4125 59.532418 138.82797 57.705078 132.5066 C 53.121818 116.65158 60.458038 104.88973 58.330078 99.971448 C 52.950418 87.537643 35.632945 106.25785 36.890625 102.44606 C 41.477155 88.545305 55.522629 85.552605 64.099609 93.727307 C 76.175259 105.23658 65.875579 116.07154 71.068359 128.58668 C 73.090139 133.4594 76.771544 139.64894 83.964844 143.0652 C 84.479044 143.3094 84.987934 143.53467 85.496094 143.76051 C 88.653014 143.31848 91.431198 142.31651 91.861328 141.27223 C 93.436348 137.44843 89.947106 136.30813 92.478516 135.20387 C 92.887786 135.02534 94.911556 134.31784 94.728516 132.88942 C 94.597346 131.86583 92.17612 131.97908 93.3125 131.49293 C 94.04342 131.18024 94.882608 131.12159 95.085938 130.52614 C 95.453778 129.56087 95.240508 129.39094 94.892578 128.62184 C 94.544658 127.85275 94.062399 126.48599 95.068359 126.18824 C 101.18275 124.37844 99.32553 121.29195 98.78125 120.78395 C 97.0035 119.12472 92.767528 112.10099 93.804688 109.28785 C 95.414278 104.92211 93.684854 95.539516 90.958984 91.035901 C 88.790434 87.45308 82.760964 84.704635 80.308594 83.696057 A 42.069412 42.069412 0 0 1 105 75.615979 z "
     transform="matrix(-1,0,0,1,210.25424,-3.923917)" /></svg>
